<svg xmlns="http://www.w3.org/2000/svg" viewBox="0 0 33.564 33.564" height="126.857" width="126.857"><defs><filter id="a" color-interpolation-filters="sRGB"><feColorMatrix values="2.354 0 0 0.952033 -0.677 0 2.354 0 0.952033 -0.677 0 0 2.354 0.952033 -0.677 0 0 0 1 0"/></filter></defs><g transform="translate(-43.232 -96.875)"><rect ry="0" rx="0" y="97.782" x="44.139" height="31.75" width="31.75" opacity=".95" fill="none" paint-order="markers stroke fill"/><path d="M60.014 103.006c-6.632 0-12.058 5.426-12.058 12.057 0 6.632 5.426 12.058 12.058 12.058 1.139 0 2.01-.87 2.01-2.01 0-.535-.202-1.004-.536-1.34a1.87 1.87 0 01-.536-1.339c0-1.139.87-2.01 2.01-2.01h2.41c3.685 0 6.7-3.014 6.7-6.698 0-5.895-5.426-10.718-12.058-10.718zm-7.369 12.057c-1.139 0-2.01-.87-2.01-2.01 0-1.138.871-2.009 2.01-2.009 1.139 0 2.01.871 2.01 2.01 0 1.139-.871 2.01-2.01 2.01zm4.02-5.358c-1.14 0-2.01-.871-2.01-2.01 0-1.139.87-2.01 2.01-2.01 1.138 0 2.009.871 2.009 2.01 0 1.139-.87 2.01-2.01 2.01zm6.698 0c-1.139 0-2.01-.871-2.01-2.01 0-1.139.871-2.01 2.01-2.01 1.139 0 2.01.871 2.01 2.01 0 1.139-.871 2.01-2.01 2.01zm4.02 5.358c-1.14 0-2.01-.87-2.01-2.01 0-1.138.87-2.009 2.01-2.009 1.138 0 2.009.871 2.009 2.01 0 1.139-.87 2.01-2.01 2.01z" filter="url(#a)"/></g></svg>