<svg xmlns="http://www.w3.org/2000/svg" viewBox="0 0 33.564 33.564" height="126.857" width="126.857"><defs><filter id="a" color-interpolation-filters="sRGB"><feColorMatrix values="2.354 0 0 0.952033 -0.677 0 2.354 0 0.952033 -0.677 0 0 2.354 0.952033 -0.677 0 0 0 1 0"/></filter><filter id="b" color-interpolation-filters="sRGB"><feColorMatrix values="2.354 0 0 0.952033 -0.677 0 2.354 0 0.952033 -0.677 0 0 2.354 0.952033 -0.677 0 0 0 1 0"/></filter></defs><g transform="translate(-43.232 -96.875)"><rect ry="0" rx="0" y="97.782" x="44.139" height="31.75" width="31.75" opacity=".95" fill="none" paint-order="markers stroke fill"/><path d="M190.4 354.1L91.9 256l98.4-98.1-30-29.9L32 256l128.4 128zm131.2 0L420 256l-98.4-98.1 30-29.9L480 256 351.6 384z" transform="translate(53.189 103.657) scale(.02666)" filter="url(#a)"/><path d="M155.6 276h40v-40h-40zm200.8-40h-40v40h40zM236 276h40v-40h-40z" transform="translate(53.189 103.657) scale(.02666)" filter="url(#a)"/><path d="M-605.76 217.03h-20.073a2.368 2.368 0 00-2.361 2.362v15.645a2.368 2.368 0 002.361 2.361h7.675l-2.361 2.657v1.77h9.445v-1.77l-2.361-2.657h7.675a2.368 2.368 0 002.361-2.361v-15.645a2.368 2.368 0 00-2.361-2.361zm0 15.94h-20.073v-13.578h20.073z" filter="url(#b)" transform="translate(675.81 -115.77)"/></g></svg>